<svg width="18" height="11" viewBox="0 0 18 11" fill="none" xmlns="http://www.w3.org/2000/svg">
<path d="M9.56075 9.93357L17.7861 1.30084C17.9234 1.1568 18 0.96543 18 0.766426C18 0.567421 17.9234 0.376054 17.7861 0.232012L17.7768 0.222717C17.7102 0.152647 17.6301 0.0968513 17.5413 0.0587244C17.4525 0.0205965 17.3568 0.000934601 17.2602 0.000934601C17.1635 0.000934601 17.0679 0.0205965 16.9791 0.0587244C16.8903 0.0968513 16.8102 0.152647 16.7436 0.222717L8.99845 8.35202L1.25641 0.222717C1.18984 0.152647 1.10972 0.0968513 1.02091 0.0587244C0.932096 0.0205965 0.836458 0.000934601 0.739811 0.000934601C0.643162 0.000934601 0.547523 0.0205965 0.458714 0.0587244C0.369902 0.0968513 0.289776 0.152647 0.223209 0.222717L0.213915 0.232012C0.076601 0.376054 0 0.567421 0 0.766426C0 0.96543 0.076601 1.1568 0.213915 1.30084L8.43925 9.93357C8.51159 10.0095 8.59859 10.0699 8.69498 10.1112C8.79137 10.1525 8.89514 10.1738 9 10.1738C9.10487 10.1738 9.20864 10.1525 9.30503 10.1112C9.40141 10.0699 9.48841 10.0095 9.56075 9.93357Z" fill="#453E3E"/>
</svg>
