<svg width="1440" height="379" fill="none" xmlns="http://www.w3.org/2000/svg"><path d="M566.187 9.745C540.87 4.72 514.597 7.417 488 15.926c212.687 64.168 280.38 350.541 428.711 353.428 19.51.381 39.364-3.205 59.289-9.934C851.814 304.244 776.043 51.362 566.205 9.745h-.018Z" fill="url(#a)"/><path d="M566 9.7C446.726-11.95 427.5 5.55 339.229 33.59 223.5 78.985 0 189.645 0 189.645v68.408S369.517 68.128 413.509 53.102C457.5 38.076 566 9.7 566 9.7Z" fill="url(#b)"/><path d="M1440 139.012V78.316s-243.68 147.713-395.56 246.901C990.284 358.568 889 365.29 889 365.29c92.931 33.364 194.49-5.69 194.49-5.69C1259.05 298.969 1440 139.012 1440 139.012Z" fill="url(#c)"/><defs><linearGradient id="a" x1="488.902" y1="7.203" x2="769.132" y2="468.408" gradientUnits="userSpaceOnUse"><stop stop-color="#FC6847"/><stop offset="1" stop-color="#FFE3DD"/></linearGradient><linearGradient id="b" x1="565.731" y1="353.401" x2="150.453" y2="-86.339" gradientUnits="userSpaceOnUse"><stop stop-color="#FFE3DD"/><stop offset="1" stop-color="#FC6847"/></linearGradient><linearGradient id="c" x1="889.258" y1="8.745" x2="1274.63" y2="478.068" gradientUnits="userSpaceOnUse"><stop stop-color="#FFE3DD"/><stop offset="1" stop-color="#FC6847"/></linearGradient></defs></svg>