<svg width="48" height="48" fill="none" xmlns="http://www.w3.org/2000/svg"><circle cx="24" cy="24" r="24" fill="#FC6847"/><path d="m21.666 27.5 6.055-3.5-6.055-3.5v7Zm13.487-9.134c.152.548.257 1.283.327 2.216.081.934.116 1.739.116 2.439l.07.98c0 2.555-.186 4.433-.513 5.635-.292 1.05-.968 1.726-2.018 2.018-.549.152-1.552.257-3.092.327a77.824 77.824 0 0 1-4.188.116l-1.855.07c-4.889 0-7.934-.186-9.135-.513-1.05-.292-1.727-.968-2.019-2.018-.151-.549-.256-1.284-.326-2.217a28.057 28.057 0 0 1-.117-2.438l-.07-.98c0-2.555.187-4.434.513-5.635.292-1.05.969-1.727 2.019-2.019.548-.151 1.551-.256 3.091-.326a77.727 77.727 0 0 1 4.189-.117l1.855-.07c4.888 0 7.933.187 9.135.513 1.05.292 1.726.969 2.018 2.019Z" fill="#fff"/></svg>