<svg width="390" height="203" fill="none" xmlns="http://www.w3.org/2000/svg"><path d="M153.342 5.223c-6.857-2.693-13.973-1.248-21.176 3.313 57.603 34.39 75.936 187.868 116.109 189.415 5.284.205 10.661-1.718 16.058-5.324-33.634-29.571-54.155-165.1-110.987-187.404h-.004Z" fill="url(#a)"/><path d="M153.292 5.199c-32.304-11.603-37.511-2.225-61.418 12.803C60.531 42.332 0 101.638 0 101.638v36.663S100.078 36.512 111.992 28.459c11.914-8.053 41.3-23.26 41.3-23.26Z" fill="url(#b)"/><path d="M390 74.501V41.973s-65.998 79.164-107.13 132.323c-14.668 17.874-42.099 21.477-42.099 21.477 25.168 17.881 52.673-3.05 52.673-3.05C340.991 160.229 390 74.501 390 74.501Z" fill="url(#c)"/><defs><linearGradient id="a" x1="132.41" y1="3.86" x2="298.793" y2="142.241" gradientUnits="userSpaceOnUse"><stop stop-color="#FC6847"/><stop offset="1" stop-color="#FFE3DD"/></linearGradient><linearGradient id="b" x1="153.219" y1="189.401" x2="-32.255" y2="90.152" gradientUnits="userSpaceOnUse"><stop stop-color="#FFE3DD"/><stop offset="1" stop-color="#FC6847"/></linearGradient><linearGradient id="c" x1="240.84" y1="4.687" x2="428.815" y2="120.371" gradientUnits="userSpaceOnUse"><stop stop-color="#FFE3DD"/><stop offset="1" stop-color="#FC6847"/></linearGradient></defs></svg>