<svg width="48" height="48" viewBox="0 0 48 48" fill="none" xmlns="http://www.w3.org/2000/svg">
<circle cx="24" cy="24" r="24" fill="#FC6847"/>
<path d="M21.6663 27.5007L27.7213 24.0007L21.6663 20.5007V27.5007ZM35.153 18.3657C35.3047 18.914 35.4097 19.649 35.4797 20.5823C35.5613 21.5157 35.5963 22.3207 35.5963 23.0207L35.6663 24.0007C35.6663 26.5557 35.4797 28.434 35.153 29.6357C34.8613 30.6857 34.1847 31.3623 33.1347 31.654C32.5863 31.8057 31.583 31.9107 30.043 31.9807C28.5263 32.0623 27.138 32.0973 25.8547 32.0973L23.9997 32.1673C19.1113 32.1673 16.0663 31.9807 14.8647 31.654C13.8147 31.3623 13.138 30.6857 12.8463 29.6357C12.6947 29.0873 12.5897 28.3523 12.5197 27.419C12.438 26.4857 12.403 25.6807 12.403 24.9807L12.333 24.0007C12.333 21.4457 12.5197 19.5673 12.8463 18.3657C13.138 17.3157 13.8147 16.639 14.8647 16.3473C15.413 16.1957 16.4163 16.0907 17.9563 16.0207C19.473 15.939 20.8613 15.904 22.1447 15.904L23.9997 15.834C28.888 15.834 31.933 16.0207 33.1347 16.3473C34.1847 16.639 34.8613 17.3157 35.153 18.3657Z" fill="white"/>
</svg>
