<svg width="935" height="1035" fill="none" xmlns="http://www.w3.org/2000/svg"><path d="M523.49 956.721c7.127 25.332 3.302 51.619-8.769 78.229C423.698 822.143 17.473 754.412 13.377 605.995c-.541-19.522 4.547-39.387 14.091-59.323C105.736 670.93 464.455 746.744 523.49 956.703v.018Z" fill="url(#a)"/><path d="M934.884 0v128.5S216.496 326.697 75.91 478.578c-47.271 54.163-56.797 155.453-56.797 155.453-47.29-92.936 8.065-194.497 8.065-194.497C174.884 195 934.884 0 934.884 0Z" fill="url(#b)"/><defs><linearGradient id="a" x1="527.096" y1="1034.05" x2="12.887" y2="591.11" gradientUnits="userSpaceOnUse"><stop stop-color="#FC6847"/><stop offset="1" stop-color="#FFE3DD"/></linearGradient><linearGradient id="b" x1="524.468" y1="633.773" x2="51.424" y2="83.257" gradientUnits="userSpaceOnUse"><stop stop-color="#FFE3DD"/><stop offset="1" stop-color="#FC6847"/></linearGradient></defs></svg>