<svg width="935" height="1035" viewBox="0 0 935 1035" fill="none" xmlns="http://www.w3.org/2000/svg">
<path d="M523.49 956.721C530.617 982.053 526.792 1008.34 514.721 1034.95C423.698 822.143 17.4728 754.412 13.3772 605.995C12.8359 586.473 17.9239 566.608 27.4683 546.672C105.736 670.93 464.455 746.744 523.49 956.703V956.721Z" fill="url(#paint0_linear_1204_28124)"/>
<path d="M934.884 0V128.5C934.884 128.5 216.496 326.697 75.91 478.578C28.6389 532.741 19.1126 634.031 19.1126 634.031C-28.1765 541.095 27.1776 439.534 27.1776 439.534C174.884 195 934.884 0 934.884 0Z" fill="url(#paint1_linear_1204_28124)"/>
<defs>
<linearGradient id="paint0_linear_1204_28124" x1="527.096" y1="1034.05" x2="12.8874" y2="591.11" gradientUnits="userSpaceOnUse">
<stop stop-color="#FC6847"/>
<stop offset="1" stop-color="#FFE3DD"/>
</linearGradient>
<linearGradient id="paint1_linear_1204_28124" x1="524.468" y1="633.773" x2="51.4244" y2="83.2565" gradientUnits="userSpaceOnUse">
<stop stop-color="#FFE3DD"/>
<stop offset="1" stop-color="#FC6847"/>
</linearGradient>
</defs>
</svg>
