<svg width="390" height="203" viewBox="0 0 390 203" fill="none" xmlns="http://www.w3.org/2000/svg">
<path d="M153.342 5.22276C146.485 2.53017 139.369 3.97531 132.166 8.53567C189.769 42.9259 208.102 196.404 248.275 197.951C253.559 198.156 258.936 196.233 264.333 192.627C230.699 163.056 210.178 27.527 153.346 5.22276H153.342Z" fill="url(#paint0_linear_1250_23848)"/>
<path d="M153.292 5.19888C120.988 -6.40407 115.781 2.97376 91.8745 18.0017C60.5313 42.3318 0 101.638 0 101.638V138.301C0 138.301 100.078 36.5123 111.992 28.4593C123.906 20.4063 153.292 5.19888 153.292 5.19888Z" fill="url(#paint1_linear_1250_23848)"/>
<path d="M390 74.5015V41.9727C390 41.9727 324.002 121.137 282.87 174.296C268.202 192.17 240.771 195.773 240.771 195.773C265.939 213.654 293.444 192.723 293.444 192.723C340.991 160.229 390 74.5015 390 74.5015Z" fill="url(#paint2_linear_1250_23848)"/>
<defs>
<linearGradient id="paint0_linear_1250_23848" x1="132.41" y1="3.86045" x2="298.793" y2="142.241" gradientUnits="userSpaceOnUse">
<stop stop-color="#FC6847"/>
<stop offset="1" stop-color="#FFE3DD"/>
</linearGradient>
<linearGradient id="paint1_linear_1250_23848" x1="153.219" y1="189.401" x2="-32.2548" y2="90.1521" gradientUnits="userSpaceOnUse">
<stop stop-color="#FFE3DD"/>
<stop offset="1" stop-color="#FC6847"/>
</linearGradient>
<linearGradient id="paint2_linear_1250_23848" x1="240.84" y1="4.68689" x2="428.815" y2="120.371" gradientUnits="userSpaceOnUse">
<stop stop-color="#FFE3DD"/>
<stop offset="1" stop-color="#FC6847"/>
</linearGradient>
</defs>
</svg>
