<svg width="1440" height="744" fill="none" xmlns="http://www.w3.org/2000/svg"><path d="M566.187 55.475c-25.317-4.627-51.59-2.144-78.187 5.692 212.687 59.085 280.38 322.776 428.711 325.435 19.51.351 39.364-2.952 59.289-9.147-124.186-50.806-199.957-283.66-409.795-321.98h-.018Z" fill="url(#a)"/><path d="M566 55.432C446.726 35.497 427.5 51.61 339.229 77.43 223.5 119.23 0 514.5 0 514.5v229S369.517 109.232 413.509 95.396C457.5 81.56 566 55.432 566 55.432Z" fill="url(#b)"/><path d="M1440 174.501V0s-243.68 254.627-395.56 345.959C990.284 376.668 889 382.857 889 382.857c92.931 30.722 194.49-5.239 194.49-5.239C1259.05 321.789 1440 174.501 1440 174.501Z" fill="url(#c)"/><defs><linearGradient id="a" x1="488.902" y1="53.134" x2="736.663" y2="495.976" gradientUnits="userSpaceOnUse"><stop stop-color="#FC6847"/><stop offset="1" stop-color="#FFE3DD"/></linearGradient><linearGradient id="b" x1="565.731" y1="371.911" x2="186.427" y2="-64.284" gradientUnits="userSpaceOnUse"><stop stop-color="#FFE3DD"/><stop offset="1" stop-color="#FC6847"/></linearGradient><linearGradient id="c" x1="889.258" y1="54.553" x2="1237.33" y2="514.908" gradientUnits="userSpaceOnUse"><stop stop-color="#FFE3DD"/><stop offset="1" stop-color="#FC6847"/></linearGradient></defs></svg>