<svg width="1440" height="565" fill="none" xmlns="http://www.w3.org/2000/svg"><path d="M566.187 14.534c-25.317-7.491-51.59-3.47-78.187 9.217 212.687 95.679 280.38 522.676 428.711 526.981 19.51.569 39.364-4.779 59.289-14.811C851.814 453.65 776.043 76.588 566.205 14.534h-.018Z" fill="url(#a)"/><path d="M566 14.464c-119.274-32.281-138.5-6.19-226.771 35.62C223.5 117.772 0 282.772 0 282.772v102s369.517-283.19 413.509-305.594C457.5 56.773 566 14.464 566 14.464Z" fill="url(#b)"/><path d="M1440 207.273v-90.5s-243.68 220.249-395.56 368.144C990.284 534.646 889 544.667 889 544.667c92.931 49.748 194.49-8.484 194.49-8.484 175.56-90.404 356.51-328.91 356.51-328.91Z" fill="url(#c)"/><defs><linearGradient id="a" x1="488.902" y1="10.744" x2="957.399" y2="527.863" gradientUnits="userSpaceOnUse"><stop stop-color="#FC6847"/><stop offset="1" stop-color="#FFE3DD"/></linearGradient><linearGradient id="b" x1="565.731" y1="526.942" x2="-19.855" y2="111.076" gradientUnits="userSpaceOnUse"><stop stop-color="#FFE3DD"/><stop offset="1" stop-color="#FC6847"/></linearGradient><linearGradient id="c" x1="889.258" y1="13.039" x2="1463.27" y2="481.868" gradientUnits="userSpaceOnUse"><stop stop-color="#FFE3DD"/><stop offset="1" stop-color="#FC6847"/></linearGradient></defs></svg>