<svg width="390" height="604" fill="none" xmlns="http://www.w3.org/2000/svg"><path d="M153.149 135.579c-6.848-3.149-13.955-1.459-21.149 3.874 57.53 40.221 75.84 219.718 115.963 221.528 5.277.239 10.647-2.009 16.037-6.227-33.592-34.584-54.087-193.09-110.846-219.175h-.005Z" fill="url(#a)"/><path d="M153 135.085c-32.242-13.585-41.221-13.583-61.3 14.991C62.588 191.502 0 447.936 0 447.936v156.062s106-417.5 111.779-441.678C117.558 138.143 153 135.085 153 135.085Z" fill="url(#b)"/><path d="M390 163.344V0s-65.896 238.346-106.965 323.838C268.389 352.584 241 358.377 241 358.377c25.13 28.758 52.592-4.904 52.592-4.904C341.067 301.214 390 163.344 390 163.344Z" fill="url(#c)"/><defs><linearGradient id="a" x1="132.244" y1="133.986" x2="319.102" y2="266.7" gradientUnits="userSpaceOnUse"><stop stop-color="#FC6847"/><stop offset="1" stop-color="#FFE3DD"/></linearGradient><linearGradient id="b" x1="185" y1="604.002" x2="-138.274" y2="322.955" gradientUnits="userSpaceOnUse"><stop stop-color="#FFE3DD"/><stop offset="1" stop-color="#FC6847"/></linearGradient><linearGradient id="c" x1="241.07" y1="51.064" x2="466.876" y2="137.341" gradientUnits="userSpaceOnUse"><stop stop-color="#FFE3DD"/><stop offset="1" stop-color="#FC6847"/></linearGradient></defs></svg>